# xmcd
#
# Track frame offsets: 
#        150
#        23094
#        46571
#        72518
#        97924
#        124876
#        152780
#        180255
#        207380
#        234759
#
# Disc length: 3482 seconds
#
# Revision: 0
# Processed by: cddbd v1.5.2PL0 Copyright (c) Steve Scherf et al.
# Submitted via: ExactAudioCopy v1.0b3
#
DISCID=740d980a
DTITLE=Manh Quynh - Ke Sau Doi
DYEAR=2007
DGENRE=
TTITLE0=Bac tinh ca
TTITLE1=Toi van yeu em
TTITLE2=Ke sau doi
TTITLE3=Noi dau tinh phu
TTITLE4=Loi cuoi cho em
TTITLE5=Hay khoc di em
TTITLE6=Tui than
TTITLE7=Tron moi tinh si
TTITLE8=Vi toi ngheo
TTITLE9=Tam su nguoi hat nhac buon
EXTD=
EXTT0=
EXTT1=
EXTT2=
EXTT3=
EXTT4=
EXTT5=
EXTT6=
EXTT7=
EXTT8=
EXTT9=
PLAYORDER=
